<svg width="188" height="40" viewBox="0 0 188 40" fill="none" xmlns="http://www.w3.org/2000/svg">
<rect width="187.586" height="40" fill="black" fill-opacity="0"/>
<rect width="139.313" height="35.3192" fill="black" fill-opacity="0" transform="translate(48.2729 4.68085)"/>
<rect width="139.313" height="35.3192" fill="black" fill-opacity="0" transform="translate(48.2729 4.68085)"/>
<rect width="139.313" height="35.3192" fill="black" fill-opacity="0" transform="translate(48.2729 4.68085)"/>
<path d="M48.2729 17.9034C48.2729 13.7023 48.2729 9.51586 48.2729 5.32945C48.2729 5.241 48.2729 5.15256 48.2729 5.07885C48.2878 4.71033 48.3027 4.68085 48.6889 4.68085C51.7788 4.68085 54.8836 4.68085 57.9735 4.69559C58.9539 4.69559 59.9195 4.90196 60.8406 5.22626C62.3113 5.74219 63.5145 6.62664 64.3464 7.96806C64.6138 8.41029 64.807 8.89674 65.0149 9.38319C65.2526 9.94334 65.2378 10.533 65.3863 11.0931C65.5349 11.6828 65.5497 12.3314 65.312 12.9357C65.2823 13.0094 65.2675 13.0979 65.2526 13.1863C65.0743 14.5867 64.4059 15.707 63.3511 16.6357C63.0837 16.8716 63.0837 17.0042 63.3808 17.1959C64.183 17.7265 64.8515 18.4046 65.3715 19.2006C65.6389 19.5986 65.8171 20.0703 65.9805 20.5126C66.1439 20.9548 66.2628 21.4117 66.3965 21.8687C66.4262 21.9866 66.441 22.1046 66.441 22.2372C66.441 22.8711 66.4559 23.5197 66.4559 24.1535C66.4559 24.5221 66.4708 24.8906 66.2776 25.2296C66.2479 25.2886 66.2479 25.377 66.2331 25.4507C66.1142 26.291 65.7577 27.0428 65.312 27.7651C64.9109 28.4431 64.3761 29.0033 63.7671 29.475C63.054 30.0204 62.2518 30.4037 61.3754 30.669C60.1721 31.0375 58.9539 31.126 57.7061 31.126C54.7796 31.1112 51.8679 31.126 48.9414 31.126C48.8375 31.126 48.7483 31.126 48.6443 31.126C48.3324 31.1112 48.3027 31.0965 48.3027 30.7869C48.3027 30.1678 48.3027 29.5635 48.3027 28.9443C48.2729 25.2591 48.2729 21.5739 48.2729 17.9034ZM52.4622 23.1954C52.4622 24.2715 52.4622 25.3623 52.4622 26.4384C52.4622 26.8511 52.5513 26.9543 52.9524 26.9543C54.9133 26.9396 56.8891 27.0133 58.85 26.7774C59.4739 26.7037 60.0978 26.5563 60.6475 26.2615C61.3902 25.8635 61.8953 25.2149 61.9993 24.4336C62.1033 23.5787 62.2073 22.6942 61.8507 21.8245C61.5833 21.1759 61.1674 20.6894 60.5732 20.3504C59.7858 19.8934 58.9094 19.6871 58.0329 19.6281C56.3691 19.5249 54.6905 19.5102 53.0267 19.4659C52.5513 19.4512 52.477 19.5691 52.477 20.0408C52.4473 21.0874 52.4622 22.1488 52.4622 23.1954ZM52.4622 12.066C52.4622 12.9652 52.4622 13.8644 52.4622 14.7489C52.4622 15.3385 52.5216 15.3975 53.1306 15.3975C54.4082 15.3975 55.6858 15.4122 56.9485 15.3975C57.3941 15.3975 57.8398 15.3385 58.2706 15.2648C59.7264 14.9995 60.6177 14.1003 60.9891 12.7441C61.1971 11.9776 61.1377 11.1521 60.7217 10.4298C60.1572 9.42741 59.2362 8.89674 58.122 8.85252C56.3988 8.77881 54.6607 8.80829 52.9227 8.80829C52.5067 8.80829 52.4473 8.882 52.4473 9.28C52.4473 10.1939 52.4622 11.1226 52.4622 12.066Z" fill="#00097F"/>
<path d="M111.096 17.9034C111.096 22.0751 111.096 26.2615 111.096 30.4332C111.096 30.5511 111.096 30.6838 111.096 30.8017C111.111 31.0228 110.977 31.1113 110.784 31.126C110.725 31.126 110.665 31.126 110.606 31.126C109.596 31.126 108.571 31.126 107.561 31.126C107.1 31.126 107.07 31.0818 107.055 30.6395C107.041 30.1826 107.041 29.7256 107.026 29.2834C107.026 29.1655 106.951 29.0328 106.907 28.9149C106.788 28.9738 106.654 29.0181 106.565 29.1065C106.09 29.6666 105.525 30.1089 104.901 30.4921C104.174 30.9196 103.401 31.2144 102.584 31.4208C101.812 31.6124 101.039 31.6419 100.267 31.5977C99.2415 31.5387 98.2462 31.3176 97.2658 30.9638C96.0179 30.5069 94.9186 29.8141 93.9679 28.9149C93.1508 28.1336 92.4675 27.2639 92.007 26.232C91.7841 25.7308 91.5019 25.2444 91.3682 24.7285C91.2494 24.242 90.9968 23.7703 91.0414 23.2396C91.0562 23.0333 91.0265 22.8269 90.9671 22.6205C90.774 21.8835 90.774 21.1612 90.9671 20.4389C91.0117 20.2767 91.0265 20.0998 91.0414 19.9229C91.0711 19.5986 91.0711 19.2743 91.2345 18.9648C91.3831 18.6847 91.4425 18.3457 91.5168 18.0361C91.6802 17.358 92.0218 16.7684 92.3635 16.1787C92.928 15.2353 93.6262 14.3951 94.4878 13.7023C95.2306 13.0979 96.0179 12.6115 96.9092 12.2282C98.2611 11.6386 99.6723 11.3732 101.128 11.4322C103.252 11.5059 105.065 12.3314 106.521 13.8939C106.61 13.9971 106.758 14.0413 106.892 14.115C106.922 13.9824 106.966 13.8644 106.966 13.7318C106.966 10.931 106.966 8.13023 106.966 5.32946C106.966 4.6956 106.966 4.6956 107.605 4.6956C108.586 4.6956 109.566 4.6956 110.532 4.6956C111.081 4.6956 111.096 4.71034 111.096 5.25576C111.096 9.45691 111.096 13.6875 111.096 17.9034ZM101.009 27.7356C101.93 27.7798 102.792 27.544 103.594 27.1607C104.56 26.7037 105.332 26.0257 105.912 25.1117C106.357 24.4189 106.729 23.6966 106.818 22.8564C106.833 22.7679 106.862 22.6942 106.877 22.6058C106.922 22.3552 106.996 22.1046 107.011 21.854C107.041 21.3086 106.981 20.7632 106.847 20.2177C106.743 19.7903 106.654 19.348 106.476 18.9648C106.224 18.4194 105.897 17.8887 105.525 17.417C104.5 16.105 103.119 15.3827 101.455 15.2058C100.564 15.1174 99.7169 15.2943 98.885 15.6039C97.9491 15.9576 97.1618 16.5178 96.5379 17.2696C95.8397 18.1245 95.3049 19.0532 95.1712 20.1735C95.1563 20.262 95.1266 20.3357 95.1117 20.4241C95.0672 20.6452 94.9929 20.8516 94.978 21.0727C94.9186 21.9719 95.1266 22.8269 95.394 23.6819C95.602 24.3305 95.9139 24.9053 96.315 25.4213C97.5035 26.9543 99.093 27.7061 101.009 27.7356Z" fill="#00097F"/>
<path d="M180.515 22.9595C178.331 22.9595 176.133 22.9595 173.949 22.9595C173.385 22.9595 173.251 23.1659 173.489 23.6818C173.697 24.1093 173.86 24.5516 174.098 24.9643C174.528 25.7308 175.152 26.3205 175.91 26.7479C177.366 27.5882 178.926 27.6324 180.545 27.3081C181.273 27.1607 181.941 26.9101 182.55 26.4973C182.877 26.2762 183.174 25.9814 183.456 25.7013C183.635 25.5245 183.754 25.5392 183.932 25.6719C184.853 26.3794 185.774 27.0722 186.695 27.7798C186.918 27.9567 186.918 28.0451 186.74 28.2515C186.086 29.077 185.254 29.6814 184.318 30.1383C183.679 30.4479 183.026 30.728 182.357 30.9933C182.016 31.126 181.659 31.2439 181.288 31.3029C180.426 31.465 179.564 31.6124 178.673 31.6124C177.782 31.6124 176.89 31.524 176.029 31.3029C174.647 30.9344 173.414 30.2858 172.36 29.3129C171.587 28.5906 170.933 27.7651 170.413 26.8364C170.042 26.173 169.745 25.4802 169.537 24.7579C169.374 24.2125 169.18 23.6524 169.195 23.0332C169.21 22.6352 169.047 22.2372 169.032 21.8392C169.017 21.4117 169.106 20.9843 169.136 20.5568C169.151 20.3504 169.18 20.144 169.21 19.9377C169.27 19.6428 169.329 19.348 169.403 19.0532C169.492 18.7289 169.567 18.3899 169.686 18.0803C169.864 17.6086 170.027 17.1221 170.265 16.6652C170.919 15.3827 171.795 14.2772 172.924 13.3632C173.667 12.7736 174.499 12.3166 175.375 11.9628C176.4 11.5648 177.455 11.4174 178.539 11.4174C179.787 11.4174 180.99 11.6385 182.134 12.184C183.59 12.8768 184.734 13.9086 185.61 15.2353C186.071 15.9429 186.442 16.6947 186.814 17.4464C186.977 17.7707 187.037 18.1393 187.126 18.493C187.274 19.009 187.408 19.5249 187.527 20.0408C187.557 20.1588 187.571 20.2767 187.571 20.4094C187.586 21.1022 187.586 21.7803 187.586 22.4731C187.586 22.8858 187.527 22.9301 187.111 22.9301C184.942 22.9595 182.729 22.9595 180.515 22.9595ZM178.376 19.2743C179.847 19.2743 181.317 19.2743 182.788 19.2743C183.204 19.2743 183.367 19.0385 183.189 18.6847C182.966 18.2719 182.758 17.8297 182.461 17.4612C181.347 16.0461 179.876 15.3238 178.049 15.4712C177.277 15.5301 176.549 15.766 175.88 16.164C174.751 16.8126 173.979 17.756 173.489 18.95C173.414 19.1269 173.518 19.2154 173.667 19.2301C173.875 19.2596 174.083 19.2743 174.291 19.2743C175.657 19.2743 177.024 19.2743 178.376 19.2743Z" fill="#00097F"/>
<path d="M142.872 22.9595C140.748 22.9595 138.609 22.9595 136.484 22.9595C136.38 22.9595 136.291 22.9595 136.187 22.9595C135.801 22.9743 135.682 23.107 135.786 23.4607C135.86 23.7261 135.949 23.9914 136.068 24.2567C136.395 25.0085 136.87 25.6571 137.494 26.2025C138.103 26.7185 138.787 27.0722 139.559 27.2934C140.272 27.4997 141 27.5145 141.728 27.485C143.303 27.4113 144.714 26.9543 145.813 25.7751C146.051 25.5245 146.081 25.5245 146.363 25.7308C147.254 26.4089 148.146 27.087 149.037 27.7651C149.319 27.9862 149.319 28.0451 149.096 28.3105C148.443 29.1212 147.611 29.7109 146.69 30.1678C146.036 30.4921 145.383 30.7869 144.699 31.0375C144.209 31.2144 143.659 31.2734 143.154 31.4208C142.233 31.6861 141.297 31.6419 140.347 31.6272C139.544 31.6124 138.787 31.4208 138.029 31.1997C137.197 30.9638 136.44 30.5953 135.741 30.1089C134.508 29.2539 133.528 28.1778 132.83 26.8364C132.533 26.2762 132.28 25.7013 132.087 25.097C131.864 24.4041 131.627 23.7113 131.627 22.9743C131.627 22.8416 131.582 22.7089 131.552 22.5763C131.389 21.9277 131.389 21.2938 131.552 20.6452C131.597 20.4978 131.656 20.3209 131.627 20.1735C131.552 19.5839 131.805 19.0679 131.938 18.5225C132.102 17.8887 132.384 17.2843 132.681 16.7094C133.216 15.6481 133.929 14.6899 134.806 13.8644C135.697 13.0389 136.707 12.4051 137.866 11.9776C139.44 11.388 141.06 11.2995 142.679 11.5943C144.298 11.8744 145.68 12.6704 146.853 13.8349C147.774 14.7341 148.458 15.7807 148.992 16.9305C149.23 17.4612 149.483 17.9919 149.572 18.5815C149.661 19.0974 149.839 19.5839 149.973 20.0998C150.017 20.2472 150.017 20.4094 150.032 20.5715C150.047 21.2201 150.047 21.8687 150.047 22.5173C150.047 22.9153 149.988 22.9595 149.587 22.9595C147.329 22.9595 145.1 22.9595 142.872 22.9595ZM140.733 19.2743C142.218 19.2743 143.704 19.2743 145.189 19.2743C145.576 19.2743 145.739 19.0679 145.605 18.7436C145.457 18.3899 145.308 18.0361 145.085 17.7413C144.328 16.7094 143.377 15.9576 142.085 15.6038C141.075 15.3385 140.124 15.4417 139.173 15.7365C138.401 15.9724 137.732 16.4146 137.153 16.9895C136.588 17.5496 136.172 18.1982 135.86 18.9353C135.786 19.0974 135.86 19.2006 136.024 19.2301C136.261 19.2596 136.499 19.2743 136.722 19.2743C138.074 19.2743 139.411 19.2743 140.733 19.2743Z" fill="#00097F"/>
<path d="M152.513 11.9334C153.092 11.9334 153.672 11.9481 154.251 11.9334C154.548 11.9186 154.726 12.0513 154.845 12.2871C155.053 12.7146 155.217 13.1569 155.41 13.5843C155.618 14.0708 155.841 14.5572 156.063 15.0437C156.167 15.2943 156.271 15.5301 156.39 15.7807C156.613 16.2967 156.851 16.8273 157.074 17.3433C157.267 17.815 157.46 18.2867 157.653 18.7584C157.861 19.2301 158.084 19.6871 158.292 20.1588C158.485 20.601 158.678 21.058 158.871 21.5002C159.049 21.8835 159.213 22.2815 159.406 22.6647C159.48 22.7974 159.569 22.7679 159.614 22.6352C159.807 22.1783 159.97 21.7066 160.164 21.2496C160.371 20.7632 160.609 20.2767 160.817 19.7903C161.01 19.3185 161.189 18.8321 161.382 18.3604C161.59 17.8739 161.812 17.3875 162.02 16.8863C162.124 16.6357 162.228 16.3851 162.332 16.1493C162.57 15.5891 162.808 15.029 163.031 14.4688C163.224 13.9823 163.402 13.4959 163.61 13.0094C163.729 12.7146 163.877 12.4051 164.041 12.125C164.1 12.0218 164.278 11.9334 164.397 11.9334C165.63 11.9186 166.878 11.9186 168.111 11.9334C168.438 11.9334 168.483 12.0513 168.349 12.3609C168.126 12.8915 167.918 13.4517 167.695 13.9823C167.487 14.4688 167.279 14.97 167.071 15.4564C166.967 15.6923 166.878 15.9281 166.774 16.164C166.536 16.7536 166.284 17.358 166.046 17.9476C165.853 18.4488 165.675 18.95 165.482 19.4512C165.274 19.9524 165.051 20.4241 164.843 20.9253C164.739 21.1464 164.665 21.3823 164.576 21.6034C164.308 22.3109 164.041 23.0038 163.759 23.7113C163.476 24.4189 163.149 25.1117 162.867 25.8193C162.659 26.3205 162.496 26.8217 162.303 27.3228C162.11 27.824 161.872 28.2957 161.664 28.7969C161.545 29.0623 161.456 29.3423 161.337 29.6077C161.218 29.9025 161.114 30.1973 160.995 30.4921C160.773 31.0523 160.55 31.6272 160.312 32.1873C160.104 32.6885 159.866 33.1897 159.658 33.6909C159.45 34.1921 159.287 34.6933 159.079 35.1945C158.886 35.6957 158.663 36.1821 158.44 36.6686C158.336 36.9044 158.247 37.1403 158.143 37.3761C157.95 37.8773 157.772 38.3785 157.579 38.8797C157.46 39.1893 157.296 39.4693 157.163 39.7789C157.088 39.941 156.984 40 156.821 40C155.618 40 154.415 40 153.226 40C153.003 40 152.899 39.9116 152.974 39.6904C153.092 39.3514 153.196 38.9976 153.315 38.6586C153.449 38.2901 153.583 37.9363 153.731 37.5678C153.85 37.2435 153.984 36.9192 154.117 36.5949C154.236 36.3 154.34 36.0052 154.444 35.7104C154.593 35.3271 154.741 34.9439 154.875 34.5606C154.994 34.2363 155.083 33.912 155.202 33.5877C155.321 33.2634 155.469 32.9391 155.588 32.6148C155.692 32.3642 155.781 32.1136 155.87 31.863C156.063 31.3176 156.242 30.7575 156.435 30.2121C156.554 29.8878 156.702 29.5929 156.821 29.2686C156.955 28.9149 157.074 28.5611 157.163 28.1926C157.222 27.9272 157.148 27.6766 157.014 27.4113C156.777 26.9543 156.598 26.4531 156.39 25.9667C156.197 25.5392 155.989 25.1117 155.796 24.6695C155.588 24.1978 155.38 23.7408 155.187 23.2691C154.994 22.8269 154.786 22.3846 154.593 21.9424C154.385 21.4855 154.177 21.0137 153.969 20.5568C153.761 20.0851 153.538 19.6281 153.33 19.1564C153.137 18.7289 152.944 18.2867 152.751 17.8592C152.528 17.3728 152.305 16.8863 152.082 16.3999C151.889 15.9724 151.711 15.5301 151.518 15.0879C151.31 14.6162 151.102 14.1592 150.894 13.6875C150.701 13.26 150.493 12.8326 150.314 12.3903C150.196 12.1103 150.3 11.9628 150.612 11.9628C151.25 11.9186 151.889 11.9334 152.513 11.9334Z" fill="#00097F"/>
<path d="M122.431 31.6272C121.703 31.7304 120.916 31.5387 120.143 31.3324C119.178 31.067 118.271 30.6395 117.425 30.0941C116.414 29.4455 115.553 28.62 114.78 27.7061C114.602 27.485 114.468 27.2344 114.29 27.028C114.186 26.8954 114.186 26.8217 114.305 26.7185C114.543 26.5416 114.765 26.3499 115.003 26.1731C115.657 25.6866 116.296 25.2002 116.949 24.7137C117.202 24.5221 117.261 24.5221 117.469 24.7727C117.989 25.3918 118.598 25.9372 119.252 26.4236C120.455 27.2934 121.777 27.7503 123.278 27.4997C123.931 27.3965 124.525 27.1017 124.852 26.5121C125.075 26.1288 125.031 25.6866 124.837 25.2739C124.585 24.7284 124.109 24.3599 123.59 24.1093C122.787 23.7113 121.941 23.387 121.109 23.0627C119.861 22.5615 118.613 22.1046 117.484 21.338C116.682 20.7926 115.954 20.1735 115.449 19.3333C115.137 18.8174 114.914 18.2572 114.825 17.6381C114.721 16.9453 114.736 16.2524 114.884 15.5891C114.988 15.1174 115.211 14.6457 115.464 14.2182C116.147 13.1274 117.157 12.4493 118.36 12.0071C119.787 11.4764 121.257 11.329 122.772 11.4911C123.619 11.5796 124.436 11.7712 125.209 12.1103C126.085 12.4788 126.902 12.98 127.6 13.6286C127.972 13.9823 128.343 14.3509 128.7 14.7194C128.923 14.9552 128.923 15.0584 128.67 15.2501C127.764 15.9281 126.858 16.6062 125.952 17.299C125.773 17.4317 125.699 17.3285 125.58 17.2401C125.045 16.8421 124.54 16.4146 123.976 16.0756C122.936 15.4564 121.777 15.2795 120.589 15.5154C120.128 15.6038 119.623 15.7365 119.267 16.1345C118.984 16.4441 118.91 17.1222 119.103 17.4759C119.415 18.0656 119.935 18.4046 120.529 18.6552C121.569 19.0827 122.609 19.466 123.664 19.864C124.793 20.2914 125.818 20.8811 126.783 21.6034C127.645 22.2372 128.343 23.0185 128.774 23.9914C128.952 24.3894 129.16 24.8169 129.116 25.2886C129.101 25.5392 129.101 25.7751 129.116 26.0256C129.16 26.7774 128.967 27.4703 128.67 28.1483C128.373 28.8264 127.957 29.4013 127.437 29.9025C126.813 30.4921 126.085 30.9196 125.268 31.2144C124.392 31.4945 123.471 31.6714 122.431 31.6272Z" fill="#00097F"/>
<path d="M78.8896 21.5592C78.8896 18.5815 78.8896 15.6186 78.8896 12.6409C78.8896 12.5378 78.8896 12.4198 78.8896 12.3166C78.8896 12.0808 79.0085 11.9481 79.2462 11.9481C80.3306 11.9481 81.4299 11.9481 82.5144 11.9481C82.752 11.9481 82.8709 12.066 82.8857 12.3166C82.8857 12.6999 82.9006 13.0832 82.9154 13.4517C82.9154 13.5696 82.9749 13.6728 83.0194 13.7907C83.1234 13.7465 83.2571 13.717 83.3463 13.6581C83.7771 13.3338 84.193 12.98 84.6387 12.6852C85.2774 12.2724 85.9905 11.9923 86.7184 11.7712C87.4166 11.5649 88.1297 11.5059 88.8427 11.4322C89.2438 11.388 89.3032 11.4617 89.3032 11.8597C89.3032 13.0979 89.3032 14.3361 89.3032 15.5744C89.3032 15.8987 89.2735 15.8987 88.9319 15.9429C88.2931 16.0313 87.6394 16.0608 87.0304 16.2377C85.6043 16.6799 84.401 17.4465 83.6136 18.7584C83.2868 19.2891 83.1234 19.8197 83.1383 20.4389C83.1531 23.785 83.1531 27.146 83.1531 30.4921C83.1531 30.5806 83.1531 30.669 83.1531 30.7427C83.1383 31.0965 83.1234 31.126 82.7817 31.126C81.6379 31.126 80.5089 31.126 79.365 31.126C78.9491 31.126 78.9045 31.0818 78.9045 30.6395C78.9045 28.2663 78.9045 25.893 78.9045 23.5344C78.8896 22.8858 78.8896 22.2225 78.8896 21.5592Z" fill="#00097F"/>
<path d="M74.2846 21.5592C74.2846 24.5516 74.2846 27.544 74.2846 30.5511C74.2846 30.6543 74.2846 30.7722 74.2846 30.8754C74.2846 31.0375 74.2103 31.126 74.0469 31.126C73.8983 31.126 73.7498 31.1407 73.6012 31.1407C72.591 31.1407 71.566 31.1407 70.5559 31.1407C70.0805 31.1407 70.0508 31.1113 70.0508 30.6395C70.0508 24.5958 70.0508 18.5668 70.0508 12.523C70.0508 11.9923 70.1102 11.9334 70.645 11.9334C71.6997 11.9334 72.7545 11.9334 73.7943 11.9334C74.24 11.9334 74.2846 11.9776 74.2846 12.4198C74.2846 15.4712 74.2846 18.5078 74.2846 21.5592Z" fill="#00097F"/>
<path d="M69.6646 7.57006C69.6201 6.18442 70.7936 5.03463 72.19 5.06412C73.5567 5.07886 74.6412 6.06649 74.6412 7.55532C74.656 9.04415 73.4973 10.0318 72.2049 10.0613C70.8531 10.0908 69.6052 8.91148 69.6646 7.57006Z" fill="#00097F"/>
<rect width="36.4163" height="36.5958" fill="black" fill-opacity="0"/>
<path d="M36.4165 18.2979L27.3124 27.4468C22.2844 32.4996 14.1323 32.4996 9.10428 27.4468C4.07624 22.394 4.07624 14.2018 9.10428 9.14894C14.1323 4.09612 22.2844 4.09612 27.3124 9.14894L36.4165 18.2979Z" fill="#715FFF"/>
<ellipse cx="17.7847" cy="18.424" rx="9.10407" ry="9.14894" fill="white"/>
<ellipse cx="17.7847" cy="18.5106" rx="4.86962" ry="5.10638" fill="#00097F"/>
<ellipse cx="20.3255" cy="15.9574" rx="2.32895" ry="2.55319" fill="white"/>
</svg>
